<svg width="28" height="29" viewBox="0 0 28 29" fill="none" xmlns="http://www.w3.org/2000/svg">
<path d="M14 27C21.1797 27 27 21.1797 27 14C27 6.8203 21.1797 1 14 1C6.8203 1 1 6.8203 1 14C1 21.1797 6.8203 27 14 27Z" stroke="#F1F1F1" stroke-width="2"/>
<path d="M11.4258 11.575L11.5008 9.92495H15.2258V22L13.2508 22.1C13.2508 20.4833 13.2175 18.525 13.1508 16.225C13.0841 13.9083 13.0425 12.3417 13.0258 11.525L11.4258 11.575ZM15.7008 7.07495C15.7008 7.52495 15.5591 7.89995 15.2758 8.19995C15.0091 8.49995 14.6425 8.64995 14.1758 8.64995C13.7091 8.64995 13.3425 8.54995 13.0758 8.34995C12.8258 8.13328 12.7008 7.83328 12.7008 7.44995C12.7008 7.04995 12.8591 6.69995 13.1758 6.39995C13.4925 6.09995 13.9091 5.94995 14.4258 5.94995C15.2758 5.94995 15.7008 6.32495 15.7008 7.07495Z" fill="#F8F8F8"/>
</svg>
