<svg width="1299" height="835" viewBox="0 0 1299 835" fill="none" xmlns="http://www.w3.org/2000/svg">
<g clip-path="url(#clip0_199_1350)">
<rect width="1299" height="835" fill="#3D3BBC"/>
<path fill-rule="evenodd" clip-rule="evenodd" d="M258.082 458.131C341.474 499.524 424.48 538.676 504.053 594.534C619.093 675.287 785.214 770.301 818.89 851.795C852.16 932.307 697.39 896.854 640.382 924.445C597.746 945.081 563.312 969.559 525.279 993.902C466.402 1031.59 476.186 1135.34 354.619 1107.35C240.547 1081.08 104.028 954.438 -19.9297 868.366C-140.635 784.553 -273.467 704.797 -363.44 608.755C-453.811 512.288 -550.155 388.907 -513.524 341.477C-471.366 286.89 -245.451 405.517 -178.606 369.427C-132.228 344.387 -299.005 179.848 -222.122 184.147C-142.075 188.623 -25.4039 323.933 79.6389 383.866C141.165 418.97 196.454 427.54 258.082 458.131Z" fill="url(#paint0_linear_199_1350)"/>
<path fill-rule="evenodd" clip-rule="evenodd" d="M1188.38 507.418C1225.76 494.901 1262.51 480.746 1301.9 482.344C1358.85 484.656 1436.18 470.115 1466 518.686C1495.46 566.67 1435.49 624.148 1422.63 678.97C1413.02 719.971 1407.04 759.552 1399.81 801.04C1388.63 865.266 1415.5 945.666 1368.35 990.693C1324.12 1032.94 1249.53 1004.69 1188.38 1002.98C1128.84 1001.32 1048.51 992.03 996.492 963C944.246 933.841 872.518 888.505 874.023 828.692C875.756 759.853 882.277 770.359 896.496 702.982C906.361 656.236 969.724 718.543 996.492 678.97C1024.36 637.768 1080.63 568.816 1129.49 559.5C1158.11 554.044 1160.75 516.668 1188.38 507.418Z" fill="#F1188C" fill-opacity="0.62" style="mix-blend-mode:multiply"/>
<path fill-rule="evenodd" clip-rule="evenodd" d="M1077.38 456.418C1114.76 443.901 1151.51 429.746 1190.9 431.344C1247.85 433.656 1325.18 419.115 1355 467.686C1384.46 515.67 1324.49 573.148 1311.63 627.97C1302.02 668.971 1296.04 708.552 1288.81 750.04C1277.63 814.266 1304.5 894.666 1257.35 939.693C1213.12 981.945 1138.53 953.693 1077.38 951.982C1017.84 950.316 937.508 941.03 885.492 912C833.246 882.841 761.518 837.505 763.023 777.692C764.756 708.853 771.277 719.359 785.496 651.982C795.361 605.236 858.724 667.543 885.492 627.97C913.362 586.768 969.63 517.816 1018.49 508.5C1047.11 503.044 1049.75 465.668 1077.38 456.418Z" fill="#F11E8F" fill-opacity="0.51" style="mix-blend-mode:darken"/>
<path fill-rule="evenodd" clip-rule="evenodd" d="M1294.38 547.418C1331.76 534.901 1368.51 520.746 1407.9 522.344C1464.85 524.656 1542.18 510.115 1572 558.686C1601.46 606.67 1541.49 664.148 1528.63 718.97C1519.02 759.971 1513.04 799.552 1505.81 841.04C1494.63 905.266 1521.5 985.666 1474.35 1030.69C1430.12 1072.94 1355.53 1044.69 1294.38 1042.98C1234.84 1041.32 1154.51 1032.03 1102.49 1003C1050.25 973.841 978.518 928.505 980.023 868.692C981.756 799.853 988.277 810.359 1002.5 742.982C1012.36 696.236 1075.72 758.543 1102.49 718.97C1130.36 677.768 1186.63 608.816 1235.49 599.5C1264.11 594.044 1266.75 556.668 1294.38 547.418Z" fill="#F1188C" fill-opacity="0.28" style="mix-blend-mode:color-burn"/>
<path fill-rule="evenodd" clip-rule="evenodd" d="M1012.41 -104.696C1066.62 -101.566 1116.39 -90.8366 1163.84 -64.454C1238.22 -23.103 1342.79 3.10375 1357.19 86.9796C1371.89 172.653 1287.26 238.91 1226.58 301.145C1164.75 364.546 1099.78 454.966 1012.41 440.561C926.19 426.346 909.204 311.95 858.868 240.521C822.761 189.284 766.423 149.58 763.24 86.9796C759.94 22.0811 790.911 -43.3916 842.417 -83.0129C889.485 -119.22 953.125 -108.119 1012.41 -104.696Z" fill="url(#paint1_linear_199_1350)" fill-opacity="0.38"/>
<path fill-rule="evenodd" clip-rule="evenodd" d="M13.9857 771.177C10.4899 651.279 113.895 570.392 193.136 488.234C258.258 420.715 329.914 360.184 420.203 350.009C510.649 339.816 601.125 371.799 672.767 434.181C744.388 496.545 787.728 586.276 803.503 683.764C820.309 787.63 821.845 901.694 761.557 982.902C701.442 1063.88 597.762 1075.76 502.104 1089.74C401.805 1104.4 297.507 1120.7 209.91 1063.53C110.987 998.968 17.6048 895.304 13.9857 771.177Z" fill="url(#paint2_linear_199_1350)" style="mix-blend-mode:overlay"/>
<path fill-rule="evenodd" clip-rule="evenodd" d="M987.962 -380.385C1043.67 -273.71 951.416 -127.74 889.37 2.47783C838.379 109.494 776.371 214.722 669.892 287.158C563.228 359.721 438.441 393.918 323.739 387.272C209.07 380.627 117.385 329.287 56.2117 251.599C-8.96302 168.829 -59.7645 66.0918 -20.578 -50.0007C18.4954 -165.758 140.679 -249.123 252.116 -328.78C368.959 -412.301 490.011 -500.11 622.066 -509.371C771.193 -519.829 930.288 -490.823 987.962 -380.385Z" fill="url(#paint3_linear_199_1350)" style="mix-blend-mode:overlay"/>
<path fill-rule="evenodd" clip-rule="evenodd" d="M298.38 -314.582C335.765 -327.099 372.51 -341.254 411.902 -339.656C468.851 -337.344 546.177 -351.885 576 -303.314C605.464 -255.33 545.485 -197.852 532.634 -143.03C523.023 -102.029 517.037 -62.4482 509.812 -20.9598C498.629 43.2659 525.497 123.666 478.354 168.693C434.116 210.945 359.529 182.693 298.38 180.982C238.835 179.316 158.508 170.03 106.492 141C54.2464 111.841 -17.4821 66.5049 -15.9767 6.69186C-14.2441 -62.1468 -7.72298 -51.6414 6.49609 -119.018C16.3614 -165.764 79.7243 -103.457 106.492 -143.03C134.362 -184.232 190.63 -253.184 239.492 -262.5C268.112 -267.956 270.752 -305.332 298.38 -314.582Z" fill="#F1188C" fill-opacity="0.38" style="mix-blend-mode:color-burn"/>
</g>
<defs>
<linearGradient id="paint0_linear_199_1350" x1="272.627" y1="437.283" x2="-25.719" y2="877.524" gradientUnits="userSpaceOnUse">
<stop stop-color="#C76097" stop-opacity="0.36"/>
<stop offset="0.1875" stop-color="#FAA4D2" stop-opacity="0"/>
<stop offset="0.9999" stop-color="#F1188C" stop-opacity="0.0104167"/>
<stop offset="1" stop-color="#F1188C" stop-opacity="0"/>
</linearGradient>
<linearGradient id="paint1_linear_199_1350" x1="1060.94" y1="-109" x2="1060.94" y2="442.091" gradientUnits="userSpaceOnUse">
<stop stop-color="#F1188C"/>
<stop offset="1" stop-color="#F1188C" stop-opacity="0"/>
</linearGradient>
<linearGradient id="paint2_linear_199_1350" x1="-256.107" y1="832.814" x2="535.386" y2="745.183" gradientUnits="userSpaceOnUse">
<stop stop-color="#C76097"/>
<stop offset="1" stop-color="#C76097" stop-opacity="0"/>
</linearGradient>
<linearGradient id="paint3_linear_199_1350" x1="989.461" y1="-380.307" x2="55.3794" y2="253.259" gradientUnits="userSpaceOnUse">
<stop stop-color="#C76097"/>
<stop offset="1" stop-color="#C76097" stop-opacity="0"/>
</linearGradient>
<clipPath id="clip0_199_1350">
<rect width="1299" height="835" fill="white"/>
</clipPath>
</defs>
</svg>
