<svg width="186" height="23" viewBox="0 0 186 23" fill="none" xmlns="http://www.w3.org/2000/svg">
<path d="M8.3418 13.6357H2.64355V11.3359H8.3418C9.44531 11.3359 10.3389 11.1602 11.0225 10.8086C11.7061 10.457 12.2041 9.96875 12.5166 9.34375C12.8389 8.71875 13 8.00586 13 7.20508C13 6.47266 12.8389 5.78418 12.5166 5.13965C12.2041 4.49512 11.7061 3.97754 11.0225 3.58691C10.3389 3.18652 9.44531 2.98633 8.3418 2.98633H3.30273V22H0.475586V0.671875H8.3418C9.95312 0.671875 11.3154 0.950195 12.4287 1.50684C13.542 2.06348 14.3867 2.83496 14.9629 3.82129C15.5391 4.79785 15.8271 5.91602 15.8271 7.17578C15.8271 8.54297 15.5391 9.70996 14.9629 10.6768C14.3867 11.6436 13.542 12.3809 12.4287 12.8887C11.3154 13.3867 9.95312 13.6357 8.3418 13.6357ZM38.3359 19.7002V22H27.6719V19.7002H38.3359ZM28.2285 0.671875V22H25.4014V0.671875H28.2285ZM55.7617 2.56152L48.7012 22H45.8154L53.9453 0.671875H55.8057L55.7617 2.56152ZM61.6797 22L54.6045 2.56152L54.5605 0.671875H56.4209L64.5801 22H61.6797ZM61.3135 14.1045V16.4189H49.3311V14.1045H61.3135ZM89.8428 0.671875V22H87.001L76.2637 5.5498V22H73.4365V0.671875H76.2637L87.0449 17.166V0.671875H89.8428ZM117.259 0.671875V22H114.417L103.68 5.5498V22H100.853V0.671875H103.68L114.461 17.166V0.671875H117.259ZM131.301 0.671875V22H128.474V0.671875H131.301ZM158.849 0.671875V22H156.007L145.27 5.5498V22H142.442V0.671875H145.27L156.051 17.166V0.671875H158.849ZM185.62 11.3799V19.1875C185.356 19.5781 184.937 20.0176 184.36 20.5059C183.784 20.9844 182.988 21.4043 181.973 21.7656C180.967 22.1172 179.668 22.293 178.076 22.293C176.777 22.293 175.581 22.0684 174.487 21.6191C173.403 21.1602 172.461 20.4961 171.66 19.627C170.869 18.748 170.254 17.6836 169.814 16.4336C169.385 15.1738 169.17 13.748 169.17 12.1562V10.501C169.17 8.90918 169.355 7.48828 169.727 6.23828C170.107 4.98828 170.664 3.92871 171.396 3.05957C172.129 2.18066 173.027 1.5166 174.092 1.06738C175.156 0.608398 176.377 0.378906 177.754 0.378906C179.385 0.378906 180.747 0.662109 181.841 1.22852C182.944 1.78516 183.804 2.55664 184.419 3.54297C185.044 4.5293 185.444 5.65234 185.62 6.91211H182.793C182.666 6.14062 182.412 5.4375 182.031 4.80273C181.66 4.16797 181.128 3.66016 180.435 3.2793C179.741 2.88867 178.848 2.69336 177.754 2.69336C176.768 2.69336 175.913 2.87402 175.19 3.23535C174.468 3.59668 173.872 4.11426 173.403 4.78809C172.935 5.46191 172.583 6.27734 172.349 7.23438C172.124 8.19141 172.012 9.27051 172.012 10.4717V12.1562C172.012 13.3867 172.153 14.4854 172.437 15.4521C172.729 16.4189 173.145 17.2441 173.682 17.9277C174.219 18.6016 174.858 19.1143 175.601 19.4658C176.353 19.8174 177.183 19.9932 178.091 19.9932C179.097 19.9932 179.912 19.9102 180.537 19.7441C181.162 19.5684 181.65 19.3633 182.002 19.1289C182.354 18.8848 182.622 18.6553 182.808 18.4404V13.665H177.871V11.3799H185.62Z" fill="#F8F8F8"/>
</svg>
