<svg width="41" height="41" viewBox="0 0 41 41" fill="none" xmlns="http://www.w3.org/2000/svg">
<g clip-path="url(#clip0_34_910)">
<path d="M18.5888 21.9422C22.9194 24.1097 28.217 22.6406 30.4215 18.661C32.6259 14.6813 30.9023 9.69816 26.5717 7.53071C22.2411 5.36326 16.9434 6.83233 14.739 10.812C12.5346 14.7916 14.2582 19.7748 18.5888 21.9422Z" fill="white"/>
<path d="M30.1562 19.7C28.484 23.0801 28.0825 26.8591 28.3269 30.6202C28.8577 38.7858 19.9004 33.6428 14.5832 30.9816C9.41427 28.3946 -0.527964 23.4185 5.24617 19.3781C8.59412 17.0354 11.982 14.6412 14.2291 11.3447C18.7926 4.65016 23.0465 7.90952 25.9706 8.61606C31.0165 11.1415 33.133 13.6829 30.1562 19.7Z" fill="white"/>
<path d="M11.8034 34.1921C13.5357 35.0591 15.6547 34.4715 16.5365 32.8796L10.2635 29.74C9.38173 31.3319 10.0712 33.3251 11.8034 34.1921Z" fill="white"/>
<path d="M25.773 8.97188C26.6391 9.40536 27.8773 8.78894 28.5387 7.59505C29.2 6.40116 29.034 5.08191 28.1679 4.64843C27.3017 4.21494 26.0635 4.83136 25.4022 6.02525C24.7408 7.21914 24.9069 8.53839 25.773 8.97188Z" fill="white"/>
</g>
<defs>
<clipPath id="clip0_34_910">
<rect width="34.2841" height="34.3445" fill="white" transform="translate(6.47461) rotate(10.8671)"/>
</clipPath>
</defs>
</svg>
