<svg width="72" height="72" viewBox="0 0 72 72" fill="none" xmlns="http://www.w3.org/2000/svg">
<path d="M44.0262 26.396C44.0262 31.033 40.279 34.7919 35.6566 34.7919C31.0343 34.7919 27.2871 31.033 27.2871 26.396C27.2871 21.759 31.0343 18 35.6566 18C40.279 18 44.0262 21.759 44.0262 26.396Z" fill="#3D3BBC"/>
<path d="M49.3909 37.7152C56.6444 51.4286 43.2705 51.4286 35.7206 51.4286C28.1709 51.4286 16.4707 51.4286 22.0504 37.7152C26.3142 27.2356 28.1709 37.7152 35.7206 37.7152C43.2705 37.7152 43.9135 27.3601 49.3909 37.7152Z" fill="#3D3BBC"/>
<path d="M36.0359 69.4284C54.5162 69.4284 69.4975 54.462 69.4975 35.9999C69.4975 17.5378 54.5162 2.57129 36.0359 2.57129C17.5555 2.57129 2.57422 17.5378 2.57422 35.9999C2.57422 54.462 17.5555 69.4284 36.0359 69.4284Z" stroke="#3D3BBC" stroke-width="2"/>
</svg>
