<svg width="31" height="31" viewBox="0 0 31 31" fill="none" xmlns="http://www.w3.org/2000/svg">
<path d="M18.9363 11.3649C18.9363 13.3614 17.3245 14.9799 15.3363 14.9799C13.3481 14.9799 11.7363 13.3614 11.7363 11.3649C11.7363 9.36847 13.3481 7.75 15.3363 7.75C17.3245 7.75 18.9363 9.36847 18.9363 11.3649Z" fill="white"/>
<path d="M21.2448 16.2385C24.3647 22.1429 18.6122 22.1429 15.3648 22.1429C12.1174 22.1429 7.08481 22.1429 9.48479 16.2385C11.3188 11.7265 12.1174 16.2385 15.3648 16.2385C18.6122 16.2385 18.8888 11.78 21.2448 16.2385Z" fill="white"/>
<path d="M15.5003 29.8929C23.4492 29.8929 29.8931 23.449 29.8931 15.5C29.8931 7.55108 23.4492 1.10718 15.5003 1.10718C7.55132 1.10718 1.10742 7.55108 1.10742 15.5C1.10742 23.449 7.55132 29.8929 15.5003 29.8929Z" stroke="white" stroke-width="2"/>
</svg>
