<svg width="30" height="23" viewBox="0 0 30 23" fill="none" xmlns="http://www.w3.org/2000/svg">
<path fill-rule="evenodd" clip-rule="evenodd" d="M2.73913 3.47827C2.33092 3.47827 2 3.14734 2 2.73913C2 2.33092 2.33092 2 2.73913 2C3.14734 2 3.47827 2.33092 3.47827 2.73913C3.47827 3.14734 3.14734 3.47827 2.73913 3.47827ZM0 2.73913C0 1.22635 1.22635 0 2.73913 0C4.25191 0 5.47827 1.22635 5.47827 2.73913C5.47827 4.25191 4.25191 5.47827 2.73913 5.47827C1.22635 5.47827 0 4.25191 0 2.73913ZM2.73913 12C2.33092 12 2 11.6691 2 11.2609C2 10.8527 2.33092 10.5218 2.73913 10.5218C3.14734 10.5218 3.47827 10.8527 3.47827 11.2609C3.47827 11.6691 3.14734 12 2.73913 12ZM0 11.2609C0 9.74811 1.22635 8.52175 2.73913 8.52175C4.25191 8.52175 5.47827 9.74811 5.47827 11.2609C5.47827 12.7737 4.25191 14 2.73913 14C1.22635 14 0 12.7737 0 11.2609ZM2 19.7826C2 20.1909 2.33092 20.5218 2.73913 20.5218C3.14734 20.5218 3.47827 20.1909 3.47827 19.7826C3.47827 19.3744 3.14734 19.0435 2.73913 19.0435C2.33092 19.0435 2 19.3744 2 19.7826ZM2.73913 17.0435C1.22635 17.0435 0 18.2699 0 19.7826C0 21.2954 1.22635 22.5218 2.73913 22.5218C4.25191 22.5218 5.47827 21.2954 5.47827 19.7826C5.47827 18.2699 4.25191 17.0435 2.73913 17.0435ZM7.91303 3.65217H28V1.65217H7.91303V3.65217ZM28 12.1739H7.91303V10.1739H28V12.1739ZM7.91303 20.6957H28V18.6957H7.91303V20.6957Z" fill="#F1F1F1"/>
</svg>
