<svg width="28" height="16" viewBox="0 0 28 16" fill="none" xmlns="http://www.w3.org/2000/svg">
<path fill-rule="evenodd" clip-rule="evenodd" d="M4.97904 5.98609C6.50672 5.98609 7.74515 4.64605 7.74515 2.99304C7.74515 1.34003 6.50672 0 4.97904 0C3.45134 0 2.21291 1.34003 2.21291 2.99304C2.21291 4.64605 3.45134 5.98609 4.97904 5.98609ZM9.69405 7.40571C9.64005 7.28322 9.58143 7.15739 9.51806 7.02815C8.42338 4.79586 7.91295 5.26342 7.12866 5.98182C6.61601 6.4514 5.98636 7.02815 5.00006 7.02815C4.01376 7.02815 3.32146 6.44447 2.7578 5.96925C1.89546 5.24222 1.33424 4.76905 0.482059 7.02815C-1.36202 11.9168 2.50484 11.9168 5.00006 11.9168C5.69853 11.9168 6.54782 11.9168 7.35619 11.8096C7.31577 11.11 7.47173 10.2329 7.88992 9.13308C8.57781 7.32395 9.09644 7.09183 9.69405 7.40571Z" fill="#F8F8F8"/>
<path fill-rule="evenodd" clip-rule="evenodd" d="M22.7705 5.98609C24.2982 5.98609 25.5367 4.64605 25.5367 2.99304C25.5367 1.34003 24.2982 0 22.7705 0C21.2429 0 20.0044 1.34003 20.0044 2.99304C20.0044 4.64605 21.2429 5.98609 22.7705 5.98609ZM22.7916 11.9168C25.2867 11.9168 29.7068 11.9168 27.3096 7.02815C26.2149 4.79586 25.7044 5.26342 24.9201 5.98183C24.4075 6.45141 23.7778 7.02815 22.7916 7.02815C21.8052 7.02815 21.1129 6.44446 20.5493 5.96924C19.6869 5.24221 19.1257 4.76906 18.2736 7.02815C18.236 7.12769 18.2008 7.2252 18.168 7.32073C18.6403 7.23608 19.1406 7.64387 19.8767 9.13308C20.4245 10.2414 20.6545 11.1235 20.6497 11.8257C21.3721 11.9168 22.13 11.9168 22.7916 11.9168Z" fill="#F8F8F8"/>
<path d="M16.9579 5.58317C16.9579 7.41985 15.5707 8.90877 13.8597 8.90877C12.1487 8.90877 10.7617 7.41985 10.7617 5.58317C10.7617 3.74649 12.1487 2.25757 13.8597 2.25757C15.5707 2.25757 16.9579 3.74649 16.9579 5.58317Z" fill="#F8F8F8"/>
<path d="M18.9434 10.0665C21.6284 15.4983 16.6779 15.4983 13.8833 15.4983C11.0886 15.4983 6.75774 15.4983 8.82311 10.0665C10.4014 5.91566 11.0886 10.0665 13.8833 10.0665C16.6779 10.0665 16.916 5.96493 18.9434 10.0665Z" fill="#F8F8F8"/>
</svg>
